o Spaceship.obj
v -0.490904 -0.019142 -0.500000
v -0.496354 -0.021515 -0.491667
v -0.486379 -0.031128 -0.491375
v 0.049180 -0.019142 -0.500000
v 0.055794 -0.028237 -0.490904
v 0.066111 -0.019142 -0.495380
v -0.490904 0.019141 -0.500000
v -0.486379 0.031128 -0.491375
v -0.496354 0.021515 -0.491667
v 0.049180 0.019141 -0.500000
v 0.055794 0.028237 -0.490904
v 0.066111 0.019141 -0.495380
v -0.275362 -0.191603 -0.008466
v -0.284876 -0.183483 -0.008333
v -0.284876 -0.183483 0.008333
v -0.275362 -0.191603 0.008466
v 0.874005 -0.030672 -0.008851
v 0.898435 -0.019142 -0.004620
v 0.898435 -0.019142 0.004620
v 0.874005 -0.030672 0.008851
v 0.898435 0.019141 -0.004620
v 0.874005 0.030672 -0.008851
v 0.874005 0.030672 0.008851
v 0.898435 0.019141 0.004620
v -0.275362 0.191603 -0.008466
v -0.284876 0.183483 -0.008333
v -0.284876 0.183483 0.008333
v -0.275362 0.191603 0.008466
v -0.490904 -0.019142 0.500000
v -0.486379 -0.031128 0.491375
v -0.496354 -0.021515 0.491667
v 0.049180 -0.019142 0.500000
v 0.055794 -0.028237 0.490904
v 0.066111 -0.019142 0.495380
v -0.490904 0.019141 0.500000
v -0.496354 0.021515 0.491667
v -0.486379 0.031128 0.491375
v 0.049180 0.019141 0.500000
v 0.055794 0.028237 0.490904
v 0.066111 0.019141 0.495380
v -0.284876 -0.183483 0.000000
v -0.275362 -0.191603 0.000000
v 0.898435 -0.019142 0.000000
v 0.874005 -0.030672 0.000000
v 0.874005 0.030672 0.000000
v 0.898435 0.019141 0.000000
v -0.284876 0.183483 0.000000
v -0.275362 0.191603 0.000000
v 0.220168 0.110983 0.002911
v 0.220168 0.110983 -0.002911
v -0.045928 0.110983 0.128096
v -0.058306 0.110983 0.128096
v -0.277382 0.110983 0.002911
v -0.277382 0.110983 -0.002911
v -0.058306 0.110983 -0.128096
v -0.045928 0.110983 -0.128096
v -0.045622 0.231915 0.005101
v -0.058612 0.231915 0.005101
v -0.058612 0.231915 -0.005101
v -0.045622 0.231915 -0.005101
v -0.380855 -0.097340 -0.001699
v -0.224699 -0.097340 -0.001699
v -0.380855 -0.085149 0.047199
v -0.224699 -0.085149 0.047199
v -0.380855 -0.050142 0.083450
v -0.224699 -0.050142 0.083450
v -0.380855 -0.001699 0.097340
v -0.224699 -0.001699 0.097340
v -0.380855 0.047199 0.085149
v -0.224699 0.047199 0.085149
v -0.380855 0.083450 0.050142
v -0.224699 0.083450 0.050142
v -0.380855 0.097340 0.001699
v -0.224699 0.097340 0.001699
v -0.380855 0.085149 -0.047199
v -0.224699 0.085149 -0.047199
v -0.380855 0.050142 -0.083450
v -0.224699 0.050142 -0.083450
v -0.380855 0.001699 -0.097340
v -0.224699 0.001699 -0.097340
v -0.380855 -0.047199 -0.085149
v -0.224699 -0.047199 -0.085149
v -0.380855 -0.083450 -0.050142
v -0.224699 -0.083450 -0.050142
v -0.354720 0.000000 0.000000
v -0.482430 0.000000 0.000000
v -0.474366 -0.131762 -0.002300
v -0.482430 -0.123699 -0.002159
v -0.362784 -0.131762 -0.002300
v -0.354720 -0.123699 -0.002159
v -0.474366 -0.115259 0.063889
v -0.482430 -0.108206 0.059980
v -0.362784 -0.115259 0.063889
v -0.354720 -0.108206 0.059980
v -0.474366 -0.067873 0.112959
v -0.482430 -0.063719 0.106047
v -0.362784 -0.067873 0.112959
v -0.354720 -0.063719 0.106047
v -0.474366 -0.002300 0.131762
v -0.482430 -0.002159 0.123699
v -0.362784 -0.002300 0.131762
v -0.354720 -0.002159 0.123699
v -0.474366 0.063889 0.115259
v -0.482430 0.059980 0.108206
v -0.362784 0.063889 0.115259
v -0.354720 0.059980 0.108206
v -0.474366 0.112959 0.067873
v -0.482430 0.106047 0.063719
v -0.362784 0.112959 0.067873
v -0.354720 0.106047 0.063719
v -0.474366 0.131762 0.002300
v -0.482430 0.123699 0.002159
v -0.362784 0.131762 0.002300
v -0.354720 0.123699 0.002159
v -0.474366 0.115259 -0.063889
v -0.482430 0.108206 -0.059979
v -0.362784 0.115259 -0.063889
v -0.354720 0.108206 -0.059979
v -0.474366 0.067873 -0.112959
v -0.482430 0.063719 -0.106047
v -0.362784 0.067873 -0.112959
v -0.354720 0.063719 -0.106047
v -0.474366 0.002300 -0.131762
v -0.482430 0.002159 -0.123699
v -0.362784 0.002300 -0.131762
v -0.354720 0.002159 -0.123699
v -0.474366 -0.063889 -0.115259
v -0.482430 -0.059979 -0.108206
v -0.362784 -0.063889 -0.115259
v -0.354720 -0.059979 -0.108206
v -0.474366 -0.112959 -0.067873
v -0.482430 -0.106047 -0.063719
v -0.362784 -0.112959 -0.067873
v -0.354720 -0.106047 -0.063719
v 0.055669 -0.141982 -0.002478
v 0.055669 -0.136060 0.021271
v 0.055669 -0.119057 0.038879
v 0.055669 -0.095529 0.045625
v 0.055669 -0.071779 0.039704
v 0.055669 -0.054172 0.022701
v 0.055669 -0.047425 -0.000828
v 0.055669 -0.053347 -0.024577
v 0.055669 -0.070350 -0.042185
v 0.055669 -0.093878 -0.048931
v 0.055669 -0.117628 -0.043010
v 0.055669 -0.135235 -0.026007
v 0.802754 -0.094704 -0.001653
v 0.800436 -0.141982 -0.002478
v 0.802754 -0.139664 -0.002438
v 0.800436 -0.136060 0.021271
v 0.802754 -0.134033 0.020148
v 0.800436 -0.119057 0.038879
v 0.802754 -0.117863 0.036892
v 0.800436 -0.095529 0.045625
v 0.802754 -0.095488 0.043308
v 0.800436 -0.071779 0.039704
v 0.802754 -0.072903 0.037676
v 0.800436 -0.054172 0.022701
v 0.802754 -0.056159 0.021507
v 0.800436 -0.047425 -0.000828
v 0.802754 -0.049743 -0.000868
v 0.800436 -0.053347 -0.024577
v 0.802754 -0.055374 -0.023454
v 0.800436 -0.070350 -0.042185
v 0.802754 -0.071544 -0.040198
v 0.800436 -0.093878 -0.048931
v 0.802754 -0.093919 -0.046614
v 0.800436 -0.117628 -0.043010
v 0.802754 -0.116504 -0.040982
v 0.800436 -0.135235 -0.026007
v 0.802754 -0.133248 -0.024813
vn -0.408145 -0.346627 -0.844552
vn -0.899000 -0.395504 -0.188084
vn -0.357341 -0.813240 -0.459291
vn 0.126187 -0.317225 -0.939918
vn 0.160361 -0.786688 -0.596159
vn 0.368225 -0.323814 -0.871524
vn -0.413007 0.386885 -0.824467
vn -0.335867 0.838794 -0.428506
vn -0.889973 0.410228 -0.199152
vn 0.128228 0.354955 -0.926048
vn 0.159104 0.805895 -0.570279
vn 0.367935 0.323096 -0.871913
vn -0.234676 -0.966093 -0.107666
vn -0.903123 -0.409695 0.128523
vn -0.897350 -0.424690 -0.120008
vn -0.223082 -0.968079 0.114270
vn 0.294627 -0.923612 -0.245225
vn 0.734429 -0.473940 -0.485793
vn 0.724625 -0.509048 0.464531
vn 0.277826 -0.934865 0.220999
vn 0.734312 0.473268 -0.486624
vn 0.294585 0.923422 -0.245992
vn 0.277513 0.934843 0.221484
vn 0.724324 0.508908 0.465153
vn -0.223082 0.968079 -0.114270
vn -0.897350 0.424689 0.120008
vn -0.903123 0.409696 -0.128523
vn -0.234676 0.966093 0.107666
vn -0.413008 -0.386885 0.824466
vn -0.335868 -0.838794 0.428506
vn -0.889973 -0.410228 0.199152
vn 0.128228 -0.354956 0.926048
vn 0.148679 -0.822004 0.549730
vn 0.360833 -0.355526 0.862207
vn -0.408144 0.346627 0.844552
vn -0.899000 0.395504 0.188084
vn -0.357341 0.813240 0.459292
vn 0.126187 0.317224 0.939918
vn 0.149552 0.803164 0.576682
vn 0.360391 0.355258 0.862502
vn -0.908076 -0.418807 0.000000
vn -0.279921 -0.960023 0.000000
vn 0.844636 -0.535342 0.000000
vn 0.285993 -0.958232 0.000000
vn 0.285994 0.958232 0.000000
vn 0.844636 0.535341 0.000000
vn -0.908076 0.418807 0.000000
vn -0.279921 0.960023 0.000000
vn 0.389356 0.849292 0.356516
vn 0.389356 0.849292 -0.356516
vn 0.158712 0.703827 0.692415
vn -0.189494 0.699907 0.688638
vn -0.456347 0.819262 0.347214
vn -0.456347 0.819262 -0.347214
vn -0.189494 0.699907 -0.688638
vn 0.158712 0.703827 -0.692415
vn 0.199578 0.905258 0.375069
vn -0.236284 0.897105 0.373326
vn -0.236284 0.897105 -0.373326
vn 0.199578 0.905258 -0.375069
vn 0.000000 -0.999848 -0.017452
vn 0.000000 -0.999848 -0.017452
vn 0.000000 -0.874620 0.484810
vn 0.000000 -0.874620 0.484810
vn 0.000000 -0.515038 0.857167
vn 0.000000 -0.515038 0.857167
vn 0.000000 -0.017452 0.999848
vn 0.000000 -0.017452 0.999848
vn 0.000000 0.484810 0.874620
vn 0.000000 0.484810 0.874620
vn 0.000000 0.857167 0.515038
vn 0.000000 0.857167 0.515038
vn 0.000000 0.999848 0.017452
vn 0.000000 0.999848 0.017452
vn 0.000000 0.874620 -0.484810
vn 0.000000 0.874620 -0.484810
vn 0.000000 0.515038 -0.857167
vn 0.000000 0.515038 -0.857167
vn 0.000000 0.017452 -0.999848
vn 0.000000 0.017452 -0.999848
vn 0.000000 -0.484810 -0.874620
vn 0.000000 -0.484810 -0.874620
vn 0.000000 -0.857167 -0.515038
vn 0.000000 -0.857167 -0.515038
vn 1.000000 0.000000 0.000000
vn -1.000000 0.000000 0.000000
vn -0.385941 -0.922383 -0.016100
vn -0.925271 -0.379249 -0.006620
vn 0.385941 -0.922383 -0.016100
vn 0.925271 -0.379249 -0.006620
vn -0.385941 -0.806857 0.447248
vn -0.925271 -0.331749 0.183891
vn 0.385941 -0.806857 0.447248
vn 0.925271 -0.331749 0.183891
vn -0.385941 -0.475135 0.790757
vn -0.925271 -0.195357 0.325129
vn 0.385941 -0.475135 0.790757
vn 0.925271 -0.195357 0.325129
vn -0.385941 -0.016100 0.922383
vn -0.925271 -0.006620 0.379249
vn 0.385941 -0.016100 0.922383
vn 0.925271 -0.006620 0.379249
vn -0.385941 0.447248 0.806857
vn -0.925271 0.183891 0.331749
vn 0.385941 0.447248 0.806857
vn 0.925271 0.183891 0.331749
vn -0.385941 0.790757 0.475135
vn -0.925271 0.325129 0.195357
vn 0.385941 0.790757 0.475135
vn 0.925271 0.325129 0.195357
vn -0.385941 0.922383 0.016100
vn -0.925271 0.379249 0.006620
vn 0.385941 0.922383 0.016100
vn 0.925271 0.379249 0.006620
vn -0.385941 0.806857 -0.447248
vn -0.925271 0.331749 -0.183891
vn 0.385941 0.806857 -0.447248
vn 0.925271 0.331749 -0.183891
vn -0.385941 0.475135 -0.790757
vn -0.925271 0.195357 -0.325129
vn 0.385941 0.475135 -0.790757
vn 0.925271 0.195357 -0.325129
vn -0.385941 0.016100 -0.922383
vn -0.925271 0.006620 -0.379249
vn 0.385941 0.016100 -0.922383
vn 0.925271 0.006620 -0.379249
vn -0.385941 -0.447248 -0.806857
vn -0.925271 -0.183891 -0.331749
vn 0.385941 -0.447248 -0.806857
vn 0.925271 -0.183891 -0.331749
vn -0.385941 -0.790757 -0.475135
vn -0.925271 -0.325129 -0.195357
vn 0.385941 -0.790757 -0.475135
vn 0.925271 -0.325129 -0.195357
vn 0.000000 -0.999848 -0.017453
vn 0.000000 -0.874620 0.484810
vn 0.000000 -0.515038 0.857167
vn 0.000000 -0.017452 0.999848
vn 0.000000 0.484810 0.874620
vn 0.000000 0.857167 0.515038
vn 0.000000 0.999848 0.017453
vn 0.000000 0.874620 -0.484810
vn 0.000000 0.515038 -0.857167
vn 0.000000 0.017452 -0.999848
vn 0.000000 -0.484810 -0.874620
vn 0.000000 -0.857167 -0.515039
vn 1.000000 0.000000 0.000000
vn 0.385938 -0.922384 -0.016100
vn 0.925270 -0.379251 -0.006620
vn 0.385938 -0.806858 0.447249
vn 0.925270 -0.331751 0.183893
vn 0.385937 -0.475135 0.790758
vn 0.925270 -0.195359 0.325132
vn 0.385938 -0.016100 0.922384
vn 0.925270 -0.006620 0.379252
vn 0.385937 0.447249 0.806858
vn 0.925270 0.183893 0.331751
vn 0.385937 0.790758 0.475136
vn 0.925270 0.325132 0.195359
vn 0.385938 0.922384 0.016100
vn 0.925270 0.379252 0.006620
vn 0.385937 0.806858 -0.447249
vn 0.925270 0.331751 -0.183893
vn 0.385937 0.475135 -0.790758
vn 0.925270 0.195359 -0.325132
vn 0.385937 0.016100 -0.922384
vn 0.925270 0.006620 -0.379252
vn 0.385938 -0.447249 -0.806858
vn 0.925270 -0.183893 -0.331751
vn 0.385938 -0.790758 -0.475136
vn 0.925270 -0.325131 -0.195359
vt 0.441336 0.213578
vt 0.427599 0.213144
vt 0.433727 0.019356
vt 0.447461 0.019791
vt 0.247720 0.507849
vt 0.243586 0.091218
vt 0.430105 0.572209
vt 0.416147 0.571767
vt 0.632682 0.103517
vt 0.452684 0.021575
vt 0.979889 0.214294
vt 0.847752 0.214294
vt 0.906073 0.024326
vt 0.921568 0.024326
vt 0.055866 0.216708
vt 0.042135 0.217400
vt 0.032299 0.023760
vt 0.046025 0.023068
vt 0.237507 0.091276
vt 0.241367 0.507910
vt 0.027492 0.610078
vt 0.012205 0.608927
vt 0.828726 0.048990
vt 0.638744 0.103959
vt 0.921568 0.410264
vt 0.906073 0.410264
vt 0.847752 0.220295
vt 0.979889 0.220295
vt 0.428398 0.020806
vt 0.429190 0.015886
vt 0.427288 0.219470
vt 0.422908 0.215372
vt 0.452203 0.016614
vt 0.441246 0.219912
vt 0.236856 0.086833
vt 0.240501 0.086485
vt 0.240546 0.091247
vt 0.247917 0.517664
vt 0.244543 0.507879
vt 0.601427 0.528840
vt 0.602246 0.519057
vt 0.605416 0.519289
vt 0.604344 0.529208
vt 0.632398 0.099035
vt 0.636060 0.098988
vt 0.635713 0.103737
vt 0.050492 0.019524
vt 0.051378 0.024422
vt 0.060600 0.218848
vt 0.056568 0.224239
vt 0.027086 0.025649
vt 0.031062 0.019478
vt 0.041283 0.223089
vt 0.037644 0.220005
vt 0.244152 0.086763
vt 0.425657 0.219778
vt 0.239658 0.544927
vt 0.244639 0.517932
vt 0.242940 0.545132
vt 0.445877 0.216100
vt 0.442855 0.220323
vt 0.608585 0.519520
vt 0.847752 0.217295
vt 0.979889 0.217295
vt 0.241357 0.517727
vt 0.057936 0.223305
vt 0.807245 0.242447
vt 0.809622 0.247064
vt 0.607975 0.529318
vt 0.639675 0.099566
vt 0.829898 0.044156
vt 0.247922 0.518137
vt 0.246223 0.545337
vt 0.185875 0.520378
vt 0.156226 0.622032
vt 0.123786 0.522012
vt 0.151559 0.431753
vt 0.185765 0.515923
vt 0.057911 0.519060
vt 0.087949 0.433314
vt 0.119999 0.517426
vt 0.092619 0.623593
vt 0.058021 0.523515
vt 0.120114 0.522102
vt 0.123671 0.517336
vt 0.154236 0.622694
vt 0.089901 0.432550
vt 0.377648 0.636006
vt 0.377303 0.654149
vt 0.321085 0.653081
vt 0.321429 0.634938
vt 0.377992 0.617863
vt 0.321774 0.616796
vt 0.378337 0.599720
vt 0.322119 0.598653
vt 0.378682 0.581577
vt 0.322463 0.580510
vt 0.379026 0.563434
vt 0.322807 0.562367
vt 0.379370 0.545292
vt 0.323152 0.544224
vt 0.379715 0.527149
vt 0.323496 0.526081
vt 0.380059 0.509006
vt 0.323841 0.507938
vt 0.380404 0.490863
vt 0.324186 0.489796
vt 0.380748 0.472720
vt 0.324530 0.471652
vt 0.381093 0.454577
vt 0.324874 0.453510
vt 0.381437 0.436435
vt 0.325219 0.435367
vt 0.792896 0.624729
vt 0.787140 0.647872
vt 0.749299 0.638384
vt 0.755122 0.615281
vt 0.693854 0.477536
vt 0.699587 0.454462
vt 0.739777 0.476697
vt 0.917352 0.508632
vt 0.911617 0.531703
vt 0.871433 0.509467
vt 0.798654 0.601632
vt 0.760895 0.592209
vt 0.700426 0.500385
vt 0.895116 0.548816
vt 0.804403 0.578544
vt 0.766651 0.569138
vt 0.717542 0.516887
vt 0.872268 0.555386
vt 0.810143 0.555461
vt 0.772397 0.546067
vt 0.740617 0.522620
vt 0.849197 0.549652
vt 0.815879 0.532382
vt 0.778135 0.522997
vt 0.763466 0.516048
vt 0.832084 0.533150
vt 0.821612 0.509308
vt 0.783870 0.499926
vt 0.827347 0.486237
vt 0.789603 0.476852
vt 0.785701 0.475858
vt 0.831249 0.487232
vt 0.833086 0.463167
vt 0.795339 0.453774
vt 0.779128 0.453008
vt 0.847750 0.470119
vt 0.838831 0.440096
vt 0.801080 0.430691
vt 0.762012 0.436506
vt 0.870598 0.463549
vt 0.844587 0.417025
vt 0.806828 0.407602
vt 0.738938 0.430773
vt 0.893669 0.469283
vt 0.850360 0.393953
vt 0.812586 0.384505
vt 0.716089 0.437345
vt 0.910782 0.485785
vt 0.856184 0.370850
vt 0.818343 0.361363
vt 0.796759 0.625694
vt 0.791236 0.648193
vt 0.745572 0.636659
vt 0.751278 0.614270
vt 0.802555 0.602632
vt 0.756995 0.591214
vt 0.808307 0.579540
vt 0.762749 0.568141
vt 0.814047 0.556455
vt 0.768495 0.545072
vt 0.819782 0.533377
vt 0.774234 0.522003
vt 0.825514 0.510303
vt 0.779968 0.498932
vt 0.836987 0.464162
vt 0.791436 0.452779
vt 0.842733 0.441093
vt 0.797175 0.429694
vt 0.848487 0.418020
vt 0.802927 0.406602
vt 0.854204 0.394964
vt 0.808723 0.383540
vt 0.859910 0.372575
vt 0.814246 0.361042
vt 0.517544 0.553314
vt 0.526344 0.553265
vt 0.527841 0.821016
vt 0.519042 0.821066
vt 0.520225 0.826654
vt 0.532333 0.838631
vt 0.508744 0.553364
vt 0.510242 0.821115
vt 0.515858 0.834313
vt 0.499945 0.553413
vt 0.501443 0.821164
vt 0.515905 0.843130
vt 0.491145 0.553463
vt 0.492643 0.821214
vt 0.520355 0.850741
vt 0.482346 0.553512
vt 0.483844 0.821262
vt 0.528015 0.855109
vt 0.473546 0.553561
vt 0.475044 0.821311
vt 0.536833 0.855059
vt 0.570342 0.553019
vt 0.579142 0.552970
vt 0.580640 0.820721
vt 0.571840 0.820770
vt 0.544444 0.850608
vt 0.561542 0.553069
vt 0.563040 0.820819
vt 0.548809 0.842947
vt 0.552743 0.553118
vt 0.554241 0.820868
vt 0.548760 0.834131
vt 0.543943 0.553167
vt 0.545441 0.820918
vt 0.544309 0.826521
vt 0.535144 0.553216
vt 0.536641 0.820967
vt 0.527836 0.822205
vt 0.519043 0.822252
vt 0.510243 0.822302
vt 0.501444 0.822351
vt 0.492643 0.822399
vt 0.483849 0.822435
vt 0.475274 0.822497
vt 0.580423 0.821909
vt 0.571836 0.821944
vt 0.563042 0.822006
vt 0.554241 0.822056
vt 0.545442 0.822105
vt 0.536648 0.822155
g Cube
f 10/1/10 4/2/4 1/3/1 7/4/7 
f 17/5/17 13/6/13 5/32/5 
f 21/7/21 18/8/18 6/31/6 12/34/12 
f 25/9/25 11/60/11 8/10/8 
f 14/11/14 26/12/26 9/13/9 2/14/2 
f 32/15/32 38/16/38 35/17/35 29/18/29 
f 33/49/33 16/19/16 20/20/20 
f 40/53/40 34/50/34 19/21/19 24/22/24 
f 37/23/37 39/67/39 28/24/28 
f 31/25/31 36/26/36 27/27/27 15/28/15 
f 3/29/3 2/30/2 1/3/1 
f 6/31/6 5/32/5 4/2/4 
f 9/33/9 8/10/8 7/4/7 
f 10/1/10 11/60/11 12/34/12 
f 16/19/16 15/35/15 41/36/41 42/37/42 
f 17/5/17 18/38/18 43/58/43 44/39/44 
f 21/40/21 22/41/22 45/42/45 46/43/46 
f 25/9/25 26/44/26 47/45/47 48/46/48 
f 31/47/31 30/48/30 29/18/29 
f 32/15/32 33/49/33 34/50/34 
f 37/51/37 36/52/36 35/17/35 
f 40/53/40 39/54/39 38/16/38 
f 12/34/12 6/31/6 4/2/4 10/1/10 
f 5/32/5 3/29/3 1/3/1 4/2/4 
f 2/30/2 9/33/9 7/4/7 1/3/1 
f 8/10/8 11/60/11 10/1/10 7/4/7 
f 20/20/20 16/19/16 42/37/42 44/39/44 
f 14/55/14 2/30/2 3/29/3 13/6/13 
f 6/56/6 18/38/18 17/5/17 5/32/5 
f 24/57/24 19/65/19 43/58/43 46/59/46 
f 11/60/11 22/41/22 21/40/21 12/61/12 
f 28/24/28 23/62/23 45/42/45 48/46/48 
f 9/33/9 26/44/26 25/9/25 8/10/8 
f 15/28/15 27/27/27 47/63/47 41/64/41 
f 34/50/34 40/53/40 38/16/38 32/15/32 
f 39/54/39 37/51/37 35/17/35 38/16/38 
f 36/52/36 31/47/31 29/18/29 35/17/35 
f 30/48/30 33/49/33 32/15/32 29/18/29 
f 31/47/31 15/35/15 16/19/16 30/48/30 
f 19/65/19 34/66/34 33/49/33 20/20/20 
f 23/62/23 39/67/39 40/68/40 24/69/24 
f 27/70/27 36/71/36 37/23/37 28/24/28 
f 39/67/39 23/62/23 28/24/28 
f 25/9/25 22/41/22 11/60/11 
f 13/6/13 3/29/3 5/32/5 
f 33/49/33 30/48/30 16/19/16 
f 41/36/41 14/55/14 13/6/13 42/37/42 
f 43/58/43 19/65/19 20/20/20 44/39/44 
f 45/42/45 23/62/23 24/69/24 46/43/46 
f 47/45/47 27/70/27 28/24/28 48/46/48 
f 42/37/42 13/6/13 17/5/17 44/39/44 
f 43/58/43 18/72/18 21/73/21 46/59/46 
f 45/42/45 22/41/22 25/9/25 48/46/48 
f 47/63/47 26/12/26 14/11/14 41/64/41 
f 51/74/51 49/75/49 57/76/57 
f 53/77/53 52/78/52 58/85/58 
f 55/79/55 54/80/54 59/81/59 
f 50/82/50 56/83/56 60/84/60 
f 60/84/60 59/81/59 58/85/58 57/76/57 
f 50/86/50 60/84/60 57/76/57 49/75/49 
f 58/85/58 52/78/52 51/74/51 57/76/57 
f 59/81/59 54/80/54 53/87/53 58/85/58 
f 60/84/60 56/83/56 55/79/55 59/81/59 
f 63/88/63 61/89/61 62/90/62 64/91/64 
f 65/92/65 63/88/63 64/91/64 66/93/66 
f 67/94/67 65/92/65 66/93/66 68/95/68 
f 69/96/69 67/94/67 68/95/68 70/97/70 
f 71/98/71 69/96/69 70/97/70 72/99/72 
f 73/100/73 71/98/71 72/99/72 74/101/74 
f 75/102/75 73/100/73 74/101/74 76/103/76 
f 77/104/77 75/102/75 76/103/76 78/105/78 
f 79/106/79 77/104/77 78/105/78 80/107/80 
f 81/108/81 79/106/79 80/107/80 82/109/82 
f 83/110/83 81/108/81 82/109/82 84/111/84 
f 61/112/61 83/110/83 84/111/84 62/113/62 
f 91/114/91 87/115/87 89/116/89 93/117/93 
f 94/118/94 90/119/90 85/120/85 
f 88/121/88 92/122/92 86/123/86 
f 95/124/95 91/114/91 93/117/93 97/125/97 
f 98/126/98 94/118/94 85/120/85 
f 92/122/92 96/127/96 86/123/86 
f 99/128/99 95/124/95 97/125/97 101/129/101 
f 102/130/102 98/126/98 85/120/85 
f 96/127/96 100/131/100 86/123/86 
f 103/132/103 99/128/99 101/129/101 105/133/105 
f 106/134/106 102/130/102 85/120/85 
f 100/131/100 104/135/104 86/123/86 
f 107/136/107 103/132/103 105/133/105 109/137/109 
f 110/138/110 106/134/106 85/120/85 
f 104/135/104 108/139/108 86/123/86 
f 111/140/111 107/136/107 109/137/109 113/141/113 
f 114/177/114 110/138/110 85/120/85 
f 108/139/108 112/176/112 86/123/86 
f 115/142/115 111/140/111 113/141/113 117/143/117 
f 118/144/118 114/177/114 85/120/85 
f 112/176/112 116/145/116 86/123/86 
f 119/146/119 115/142/115 117/143/117 121/147/121 
f 122/148/122 118/144/118 85/120/85 
f 116/145/116 120/149/120 86/123/86 
f 123/150/123 119/146/119 121/147/121 125/151/125 
f 126/152/126 122/148/122 85/120/85 
f 120/149/120 124/153/124 86/123/86 
f 127/154/127 123/150/123 125/151/125 129/155/129 
f 130/156/130 126/152/126 85/120/85 
f 124/153/124 128/157/128 86/123/86 
f 131/158/131 127/154/127 129/155/129 133/159/133 
f 134/160/134 130/156/130 85/120/85 
f 128/157/128 132/161/132 86/123/86 
f 87/162/87 131/158/131 133/159/133 89/163/89 
f 90/119/90 134/160/134 85/120/85 
f 132/161/132 88/121/88 86/123/86 
f 92/164/92 88/165/88 87/115/87 91/114/91 
f 90/166/90 94/167/94 93/117/93 89/116/89 
f 96/168/96 92/164/92 91/114/91 95/124/95 
f 94/167/94 98/169/98 97/125/97 93/117/93 
f 100/170/100 96/168/96 95/124/95 99/128/99 
f 98/169/98 102/171/102 101/129/101 97/125/97 
f 104/172/104 100/170/100 99/128/99 103/132/103 
f 102/171/102 106/173/106 105/133/105 101/129/101 
f 108/174/108 104/172/104 103/132/103 107/136/107 
f 106/173/106 110/175/110 109/137/109 105/133/105 
f 112/176/112 108/174/108 107/136/107 111/140/111 
f 110/175/110 114/177/114 113/141/113 109/137/109 
f 116/145/116 112/176/112 111/140/111 115/142/115 
f 114/177/114 118/144/118 117/143/117 113/141/113 
f 120/178/120 116/145/116 115/142/115 119/146/119 
f 118/144/118 122/179/122 121/147/121 117/143/117 
f 124/180/124 120/178/120 119/146/119 123/150/123 
f 122/179/122 126/181/126 125/151/125 121/147/121 
f 128/182/128 124/180/124 123/150/123 127/154/127 
f 126/181/126 130/183/130 129/155/129 125/151/125 
f 132/184/132 128/182/128 127/154/127 131/158/131 
f 130/183/130 134/185/134 133/159/133 129/155/129 
f 88/186/88 132/184/132 131/158/131 87/162/87 
f 134/185/134 90/187/90 89/163/89 133/159/133 
f 136/188/136 135/189/135 148/190/148 150/191/150 
f 151/192/151 149/225/149 147/193/147 
f 137/194/137 136/188/136 150/191/150 152/195/152 
f 153/196/153 151/192/151 147/193/147 
f 138/197/138 137/194/137 152/195/152 154/198/154 
f 155/199/155 153/196/153 147/193/147 
f 139/200/139 138/197/138 154/198/154 156/201/156 
f 157/202/157 155/199/155 147/193/147 
f 140/203/140 139/200/139 156/201/156 158/204/158 
f 159/205/159 157/202/157 147/193/147 
f 141/206/141 140/203/140 158/204/158 160/207/160 
f 161/208/161 159/205/159 147/193/147 
f 142/209/142 141/210/141 160/211/160 162/212/162 
f 163/213/163 161/208/161 147/193/147 
f 143/214/143 142/209/142 162/212/162 164/215/164 
f 165/216/165 163/213/163 147/193/147 
f 144/217/144 143/214/143 164/215/164 166/218/166 
f 167/219/167 165/216/165 147/193/147 
f 145/220/145 144/217/144 166/218/166 168/221/168 
f 169/222/169 167/219/167 147/193/147 
f 146/223/146 145/220/145 168/221/168 170/224/170 
f 171/237/171 169/222/169 147/193/147 
f 135/189/135 146/223/146 170/224/170 148/190/148 
f 149/225/149 171/237/171 147/193/147 
f 149/225/149 151/226/151 150/191/150 148/190/148 
f 151/226/151 153/227/153 152/195/152 150/191/150 
f 153/227/153 155/228/155 154/198/154 152/195/152 
f 155/228/155 157/229/157 156/201/156 154/198/154 
f 157/229/157 159/230/159 158/204/158 156/201/156 
f 159/230/159 161/231/161 160/207/160 158/204/158 
f 161/232/161 163/233/163 162/212/162 160/211/160 
f 163/233/163 165/234/165 164/215/164 162/212/162 
f 165/234/165 167/235/167 166/218/166 164/215/164 
f 167/235/167 169/236/169 168/221/168 166/218/166 
f 169/236/169 171/237/171 170/224/170 168/221/168 
f 171/237/171 149/225/149 148/190/148 170/224/170 
